HIERARCHY
ROOT Hips
{
 OFFSET 0.000000 0.000000 0.000000
 CHANNELS 6 Xposition Yposition Zposition Yrotation Xrotation Zrotation
 JOINT Chest
 {
  OFFSET 0.000000 9.585900 0.002600
  CHANNELS 3 Yrotation Xrotation Zrotation
  JOINT Chest2
  {
   OFFSET 0.000000 9.601200 -0.005300
   CHANNELS 3 Yrotation Xrotation Zrotation
   JOINT Chest3
   {
    OFFSET 0.000000 9.561800 0.000000
    CHANNELS 3 Yrotation Xrotation Zrotation
    JOINT Chest4
    {
     OFFSET 0.000000 9.552100 0.000000
     CHANNELS 3 Yrotation Xrotation Zrotation
     JOINT Neck
     {
      OFFSET 0.000000 14.453000 0.000000
      CHANNELS 3 Yrotation Xrotation Zrotation
      JOINT Head
      {
       OFFSET 0.000000 8.936500 -0.011300
       CHANNELS 3 Yrotation Xrotation Zrotation
       End Site
       {
        OFFSET 0.000000 17.073600 -0.006000
       }
      }
     }
     JOINT RightCollar
     {
      OFFSET -2.921100 9.558500 0.000000
      CHANNELS 3 Yrotation Xrotation Zrotation
      JOINT RightShoulder
      {
       OFFSET -13.519700 0.000000 0.000000
       CHANNELS 3 Yrotation Xrotation Zrotation
       JOINT RightElbow
       {
        OFFSET 0.000000 -29.696600 0.000000
        CHANNELS 3 Yrotation Xrotation Zrotation
        JOINT RightWrist
        {
         OFFSET 0.000000 -24.004700 0.000000
         CHANNELS 3 Yrotation Xrotation Zrotation
         End Site
         {
          OFFSET 0.000000 -17.728500 0.000000
         }
        }
       }
      }
     }
     JOINT LeftCollar
     {
      OFFSET 2.921100 9.558500 0.000000
      CHANNELS 3 Yrotation Xrotation Zrotation
      JOINT LeftShoulder
      {
       OFFSET 13.519700 0.000000 0.000000
       CHANNELS 3 Yrotation Xrotation Zrotation
       JOINT LeftElbow
       {
        OFFSET 0.000000 -29.696600 0.000000
        CHANNELS 3 Yrotation Xrotation Zrotation
        JOINT LeftWrist
        {
         OFFSET 0.000000 -24.004700 0.000000
         CHANNELS 3 Yrotation Xrotation Zrotation
         End Site
         {
          OFFSET 0.000000 -17.728500 0.000000
         }
        }
       }
      }
     }
    }
   }
  }
 }
 JOINT RightHip
 {
  OFFSET -7.771700 -0.012900 -0.001300
  CHANNELS 3 Yrotation Xrotation Zrotation
  JOINT RightKnee
  {
   OFFSET 0.000000 -40.869800 0.001200
   CHANNELS 3 Yrotation Xrotation Zrotation
   JOINT RightAnkle
   {
    OFFSET 0.000000 -39.717900 0.002100
    CHANNELS 3 Yrotation Xrotation Zrotation
    JOINT RightToe
    {
     OFFSET 0.000000 -4.965400 11.033500
     CHANNELS 3 Yrotation Xrotation Zrotation
     End Site
     {
      OFFSET 0.000000 -1.423100 5.872300
     }
    }
   }
  }
 }
 JOINT LeftHip
 {
  OFFSET 7.771700 -0.012900 -0.001300
  CHANNELS 3 Yrotation Xrotation Zrotation
  JOINT LeftKnee
  {
   OFFSET 0.000000 -40.869800 0.001200
   CHANNELS 3 Yrotation Xrotation Zrotation
   JOINT LeftAnkle
   {
    OFFSET 0.000000 -39.717900 0.002100
    CHANNELS 3 Yrotation Xrotation Zrotation
    JOINT LeftToe
    {
     OFFSET 0.000000 -4.965400 11.033500
     CHANNELS 3 Yrotation Xrotation Zrotation
     End Site
     {
      OFFSET 0.000000 -1.423100 5.872300
     }
    }
   }
  }
 }
}
MOTION
Frames: 15
Frame Time: 0.008333
0.000000 85.388000 0.000000 0.000000 -5.767877 0.000000 0.000000 11.653817 0.000000 0.000000 -5.885947 0.000000 0.000000 -0.000000 0.000000 0.000000 -0.000000 0.000000 0.000000 12.528835 0.000000 0.000000 0.711642 0.000000 0.000000 -0.000000 0.000000 0.000000 0.000000 -90.000000 0.000000 -2.309062 0.000000 0.000000 2.309062 0.000000 0.000000 -0.000000 0.000000 0.000000 -0.000000 90.000000 0.000000 -2.309062 0.000000 0.000000 2.309062 0.000000 0.000000 8.520406 0.000000 0.000000 1.905762 0.000000 -0.000000 -4.658285 0.000000 0.000000 -0.000000 0.000000 0.000000 8.520406 0.000000 0.000000 1.905762 0.000000 -0.000000 -4.658285 0.000000 0.000000 -0.000000 0.000000
-51.095654 52.861256 -13.708997 -178.483100 -17.688434 -2.133685 0.554035 16.268792 0.879159 0.031696 1.619403 0.091152 0.074364 2.717423 0.143043 0.481280 14.413433 0.814217 -0.710830 16.609230 0.931322 -0.961084 -8.196330 1.218678 0.067481 -0.713032 2.705477 -3.509687 -8.806050 -5.576944 -85.292249 -74.283254 114.755836 0.865025 23.994396 5.680892 -5.129376 -2.190110 0.387888 3.618735 -4.475267 9.875475 64.949532 -54.682236 -105.541374 2.818123 9.066738 4.283522 2.075662 -61.105824 11.360178 177.320178 86.614042 175.293210 -12.654714 -23.012447 13.093898 0.001005 -0.000815 0.010841 5.373379 -59.405929 -3.156738 121.178804 77.924872 119.406387 -6.538834 -20.029898 -0.767417 0.034429 0.062748 0.023362
-51.097591 52.863023 -13.710556 -178.487826 -17.685776 -2.135966 0.565822 16.268018 0.881577 0.039788 1.621263 0.087893 0.077934 2.716120 0.142056 0.499698 14.409897 0.811205 -0.718392 16.653818 0.985033 -0.979076 -8.156861 1.268586 0.042377 -0.761540 2.719318 -3.485197 -8.754196 -5.571286 -84.828757 -74.175606 114.381147 0.526753 23.403989 5.283166 -5.182806 -2.278419 0.388507 3.596469 -4.494780 9.874935 64.917630 -54.676879 -105.506921 2.818995 9.052854 4.282980 2.077921 -61.104178 11.353014 177.253198 86.616734 175.223094 -12.527317 -23.025968 13.068726 0.003646 -0.009012 0.001783 5.372364 -59.408002 -3.153642 121.198352 77.926010 119.427902 -6.532269 -20.033274 -0.768692 0.031920 0.060001 0.019522
-51.099738 52.864692 -13.711459 -178.488386 -17.678706 -2.139899 0.573453 16.262675 0.884055 0.063570 1.619854 0.079161 0.083144 2.711832 0.140490 0.496842 14.410051 0.818040 -0.723190 16.695354 1.032944 -0.992842 -8.119177 1.311774 0.029248 -0.877006 2.724724 -3.457221 -8.641808 -5.561890 -84.339538 -74.088119 113.973602 0.201370 22.836364 4.883550 -5.223010 -2.350779 0.390840 3.568346 -4.521204 9.861937 64.884839 -54.674886 -105.472923 2.825017 9.037623 4.285119 2.078601 -61.104642 11.326289 176.889077 86.617239 174.837736 -12.293745 -23.050136 13.034281 0.012091 -0.020318 -0.009955 5.367811 -59.413877 -3.152789 121.177423 77.925395 119.409534 -6.527757 -20.032373 -0.770782 0.029564 0.059188 0.017808
-51.103303 52.865823 -13.710809 -178.489814 -17.662857 -2.135539 0.588223 16.246028 0.880212 0.066316 1.617509 0.075626 0.085788 2.709016 0.139342 0.511387 14.405801 0.817580 -0.729397 16.735210 1.077419 -1.008186 -8.078457 1.354110 0.007083 -0.933659 2.737951 -3.369107 -8.627878 -5.563153 -83.732761 -74.018607 113.403472 -0.103014 22.293072 4.485986 -5.264309 -2.416826 0.392908 3.535389 -4.542557 9.844405 64.854409 -54.675656 -105.438738 2.832768 9.019823 4.290516 2.091516 -61.116362 11.302307 177.046962 86.621304 174.985445 -12.186904 -23.059980 13.023451 0.014474 -0.021759 -0.012041 5.375201 -59.428021 -3.167112 121.137927 77.919956 119.372993 -6.534112 -20.030810 -0.773684 0.035433 0.058818 0.017870
-51.107488 52.867150 -13.711338 -178.487508 -17.655705 -2.128452 0.608809 16.236637 0.867754 0.061385 1.615600 0.075927 0.082449 2.708049 0.142059 0.529032 14.397435 0.813013 -0.734121 16.776080 1.120819 -1.024438 -8.040569 1.395437 -0.015102 -0.993294 2.753843 -3.301947 -8.610702 -5.568355 -83.115119 -73.971827 112.857101 -0.381711 21.767731 4.087996 -5.303833 -2.476249 0.396088 3.499581 -4.561293 9.823972 64.778734 -54.678576 -105.329786 2.824233 8.972113 4.258335 2.103579 -61.123200 11.319173 177.642160 86.629485 175.614637 -12.433907 -23.036898 13.054978 0.002447 -0.008451 0.002910 5.382433 -59.433304 -3.187583 121.108094 77.913520 119.341532 -6.529804 -20.031973 -0.772603 0.031608 0.059985 0.014156
-51.110820 52.868323 -13.712217 -178.486655 -17.652100 -2.124913 0.615927 16.232086 0.860636 0.072370 1.610633 0.068425 0.068640 2.712175 0.152397 0.555469 14.385000 0.797537 -0.738711 16.813780 1.163585 -1.043559 -8.005007 1.435992 -0.040583 -1.059471 2.775408 -3.245408 -8.585499 -5.577277 -82.520019 -73.955747 112.356877 -0.631074 21.257479 3.695906 -5.339274 -2.496031 0.412485 3.481342 -4.570076 9.813089 64.766160 -54.681096 -105.316606 2.817759 8.918963 4.227866 2.108666 -61.127338 11.347864 178.450695 86.641126 176.456815 -12.676042 -23.006963 13.085618 -0.009321 -0.001537 0.015225 5.378638 -59.436139 -3.194920 121.088000 77.908018 119.322655 -6.532169 -20.034122 -0.768858 0.036715 0.061136 0.005641
-51.113380 52.869188 -13.713283 -178.479199 -17.650311 -2.126374 0.630083 16.226868 0.852731 0.068329 1.606920 0.070133 0.075973 2.710794 0.148947 0.566741 14.377602 0.793555 -0.745833 16.849980 1.204370 -1.062855 -7.972183 1.471984 -0.064302 -1.131224 2.799270 -3.186758 -8.560058 -5.591373 -81.952067 -73.967648 111.888660 -0.847063 20.765869 3.314428 -5.382744 -2.560377 0.421212 3.440895 -4.588834 9.778466 64.726646 -54.685747 -105.252713 2.821269 8.894222 4.228005 2.109796 -61.129211 11.366249 179.158445 86.648418 177.193620 -12.828106 -22.981242 13.100943 -0.018227 -0.004210 0.020840 5.337163 -59.438456 -3.186422 121.082156 77.903090 119.318295 -6.513342 -20.036449 -0.788530 0.034137 0.060632 0.005188
-51.114920 52.869418 -13.713540 -178.470787 -17.643597 -2.132282 0.639223 16.213283 0.848245 0.063451 1.607957 0.075343 0.082888 2.703892 0.141405 0.574506 14.368843 0.787894 -0.749586 16.899422 1.246537 -1.073350 -7.975016 1.480829 -0.075164 -1.201202 2.823220 -3.124600 -8.537185 -5.613570 -81.410219 -73.997160 111.451103 -1.024583 20.295507 2.943318 -5.416800 -2.600490 0.434045 3.405273 -4.620414 9.738075 64.739204 -54.687324 -105.295218 2.840908 8.896084 4.288313 2.103872 -61.131921 11.340747 178.975276 86.648476 176.985669 -12.578363 -22.987287 13.063314 -0.008055 -0.030516 0.006832 5.311793 -59.446277 -3.178100 121.092684 77.901764 119.327915 -6.503597 -20.039640 -0.789270 0.036724 0.060447 0.001788
-51.114899 52.869508 -13.714411 -178.471130 -17.640542 -2.143275 0.653616 16.207347 0.858454 0.058093 1.605596 0.074286 0.089584 2.700525 0.140024 0.579544 14.344229 0.769757 -0.757894 16.945035 1.283168 -1.075117 -7.962240 1.492948 -0.077962 -1.260908 2.850712 -3.050684 -8.517131 -5.644549 -80.891987 -74.035054 111.036023 -1.163996 19.849283 2.587204 -5.435673 -2.580857 0.456946 3.391154 -4.640512 9.719808 64.790190 -54.683628 -105.384322 2.851779 8.875888 4.304637 2.093534 -61.128228 11.289534 178.127866 86.644464 176.071637 -12.005959 -23.017953 12.982908 0.016012 -0.070278 -0.018840 5.289893 -59.451315 -3.155873 121.103713 77.901299 119.338979 -6.499794 -20.041738 -0.784649 0.034104 0.059367 0.001617
-51.117501 52.868801 -13.713964 -178.470140 -17.628602 -2.137431 0.655199 16.194086 0.848710 0.054848 1.604376 0.076081 0.092510 2.693297 0.135660 0.577808 14.348433 0.773732 -0.764414 16.961069 1.291045 -1.075869 -7.923322 1.516116 -0.072179 -1.301851 2.853846 -2.949504 -8.544548 -5.679009 -80.399075 -74.080634 110.638570 -1.277194 19.423926 2.247773 -5.446341 -2.632908 0.448307 3.383322 -4.617229 9.713706 64.782460 -54.685067 -105.375865 2.852042 8.824739 4.268479 2.112820 -61.142492 11.260629 178.268757 86.643842 176.208211 -11.862407 -23.007006 12.954818 0.019125 -0.080908 -0.018317 5.287234 -59.461938 -3.169271 121.082857 77.896585 119.316763 -6.491845 -20.044110 -0.789102 0.031332 0.061913 0.000357
-51.121076 52.867078 -13.710818 -178.483125 -17.599293 -2.120182 0.660410 16.161015 0.827693 0.057294 1.605043 0.079567 0.093043 2.684403 0.131597 0.579483 14.334196 0.767846 -0.766072 16.991938 1.305894 -1.088314 -7.876713 1.540420 -0.066909 -1.322937 2.866943 -2.829880 -8.573080 -5.717806 -79.938891 -74.133518 110.263239 -1.378201 19.012935 1.930099 -5.465378 -2.660484 0.452132 3.362257 -4.619236 9.682709 64.806941 -54.677523 -105.403024 2.858200 8.813001 4.279979 2.147246 -61.182290 11.283807 179.730380 86.654295 177.715320 -12.119113 -22.953134 12.981019 0.002067 -0.066880 0.001927 5.291774 -59.490679 -3.185221 121.063450 77.891799 119.289244 -6.482054 -20.043413 -0.798652 0.031732 0.063419 0.000609
-51.122213 52.866325 -13.710568 -178.489944 -17.586749 -2.119189 0.664118 16.146651 0.826445 0.049441 1.588705 0.072481 0.099335 2.688372 0.135152 0.574142 14.284250 0.752118 -0.756624 17.060298 1.324178 -1.116482 -7.806369 1.560526 -0.043613 -1.352101 2.887688 -2.706249 -8.555622 -5.765054 -79.511301 -74.187793 109.911824 -1.477843 18.610996 1.647443 -5.468835 -2.643855 0.459278 3.342757 -4.624480 9.644355 64.816717 -54.666618 -105.423270 2.867399 8.794084 4.297865 2.151355 -61.196746 11.285262 179.882717 86.656736 177.865030 -12.052940 -22.935366 12.961881 0.002463 -0.073650 0.002847 5.284263 -59.502826 -3.182081 121.044026 77.886924 119.274201 -6.481105 -20.045508 -0.806774 0.035249 0.065523 0.001441
-51.121981 52.865815 -13.710650 -178.491264 -17.575294 -2.127484 0.660513 16.128998 0.829143 0.052259 1.585158 0.073908 0.096507 2.680252 0.132027 0.576374 14.277578 0.751093 -0.788622 17.094683 1.322262 -1.092778 -7.790610 1.562100 -0.000369 -1.471825 2.902880 -2.596139 -8.485706 -5.824036 -79.105401 -74.235863 109.576144 -1.583166 18.217321 1.409046 -5.483781 -2.699502 0.463708 3.342153 -4.592805 9.605673 64.799196 -54.657206 -105.415783 2.875804 8.758577 4.302406 2.141544 -61.204283 11.260320 179.427818 86.656402 177.359920 -11.700423 -22.945800 12.915689 0.016258 -0.092089 -0.008716 5.266604 -59.514987 -3.166846 121.035028 77.883728 119.270991 -6.481431 -20.049059 -0.812496 0.037594 0.068617 0.002700
-51.122694 52.865527 -13.711011 -178.488427 -17.565308 -2.130521 0.655639 16.112442 0.826615 0.051040 1.584186 0.079107 0.090860 2.658990 0.128573 0.583849 14.298610 0.751061 -0.797534 17.104707 1.321823 -1.151137 -7.713555 1.562430 0.031632 -1.560231 2.919585 -2.464146 -8.459376 -5.886403 -78.720810 -74.268996 109.254828 -1.695168 17.839061 1.220632 -5.489430 -2.721962 0.468914 3.330467 -4.605318 9.552734 64.751006 -54.670400 -105.357080 2.885328 8.712295 4.279214 2.132233 -61.212545 11.261850 179.599512 86.659214 177.514151 -11.625625 -22.934841 12.907887 0.017334 -0.090470 -0.004160 5.257518 -59.525096 -3.165530 121.033526 77.881074 119.275144 -6.479445 -20.052628 -0.820058 0.040668 0.070692 0.005907
